<?xml version="1.0" standalone="no"?>
<!DOCTYPE svg PUBLIC "-//W3C//DTD SVG 20010904//EN"
 "http://www.w3.org/TR/2001/REC-SVG-20010904/DTD/svg10.dtd">
<svg version="1.0" xmlns="http://www.w3.org/2000/svg"
 width="1000.000000pt" height="1000.000000pt" viewBox="0 0 1000.000000 1000.000000"
 preserveAspectRatio="xMidYMid meet">

<g transform="translate(0.000000,1000.000000) scale(0.100000,-0.100000)"
fill="#000000" stroke="none">
<path d="M5090 7412 c-69 -3 -110 -25 -158 -84 -20 -24 -26 -26 -45 -17 -22
12 -22 12 -3 -9 16 -19 17 -30 9 -112 -7 -76 -6 -104 8 -160 10 -40 20 -130
24 -216 3 -81 8 -151 10 -155 3 -4 7 -76 10 -160 3 -85 8 -169 10 -186 4 -28
5 -89 3 -252 0 -13 6 -27 14 -32 7 -5 8 -9 2 -9 -11 0 -14 -70 -2 -70 3 0 4
-57 2 -126 -2 -72 1 -146 7 -173 14 -59 19 -86 23 -137 4 -49 26 -114 39 -114
4 0 5 5 1 12 -4 7 -3 8 4 4 7 -4 12 -14 12 -22 0 -9 6 -14 12 -12 7 3 21 -6
31 -19 29 -36 78 -31 127 13 24 22 46 34 55 30 10 -3 15 1 15 12 0 9 10 22 23
27 13 6 22 19 23 33 1 13 13 35 28 51 14 15 26 32 26 39 0 7 4 12 10 12 5 0 7
7 4 15 -4 8 -1 15 5 15 6 0 11 14 11 30 0 17 4 30 9 30 5 0 8 8 7 18 -1 11 5
16 17 14 22 -4 23 35 1 66 -12 17 -12 22 -2 22 9 0 9 3 -2 10 -11 7 -11 10 -2
10 10 0 12 12 8 45 -4 34 -2 45 8 45 8 0 16 6 19 13 6 15 0 100 -9 142 -4 17
-9 134 -10 260 -3 238 -8 332 -18 342 -3 4 -6 27 -6 53 0 25 -6 70 -14 100 -8
30 -17 78 -21 105 -4 28 -11 55 -16 60 -4 6 -10 34 -13 63 -3 29 -10 61 -16
73 -7 11 -13 39 -15 62 -2 23 -7 63 -11 89 -5 33 -3 53 6 63 9 10 9 15 1 15
-6 0 -10 5 -8 11 1 7 -10 15 -25 19 -15 5 -35 15 -44 24 -8 9 -23 16 -32 17
-9 0 -33 1 -52 2 -19 1 -64 1 -100 -1z m337 -734 c-3 -7 -5 -2 -5 12 0 14 2
19 5 13 2 -7 2 -19 0 -25z m31 -553 c-3 -3 -9 2 -12 12 -6 14 -5 15 5 6 7 -7
10 -15 7 -18z"/>
<path d="M3218 7402 c-20 -2 -42 -10 -48 -18 -7 -8 -24 -14 -39 -14 -36 0 -74
-26 -162 -111 -124 -121 -244 -295 -338 -494 -62 -129 -165 -394 -287 -735
-12 -34 -41 -54 -41 -28 0 7 -3 23 -7 36 -6 17 -3 22 9 22 13 0 15 5 8 23 -4
12 -8 45 -8 72 0 28 -5 53 -12 57 -8 6 -8 17 0 45 8 24 8 38 1 40 -6 2 -9 37
-6 93 3 62 1 90 -7 90 -6 0 -11 7 -11 15 0 8 -7 15 -15 15 -9 0 -15 6 -13 13
1 6 -3 21 -9 32 -6 11 -11 25 -11 30 0 16 -312 146 -333 140 -39 -13 -56 -76
-79 -286 -5 -54 -14 -107 -18 -119 -8 -21 -9 -21 -25 11 -15 32 -15 35 0 46
15 12 15 14 0 30 -8 10 -19 43 -23 73 -4 30 -11 57 -15 60 -4 3 -9 26 -10 50
-2 25 -7 48 -12 51 -5 4 -9 24 -9 45 0 22 -6 54 -14 73 -8 18 -14 41 -14 51 0
10 -7 23 -15 30 -8 7 -15 20 -15 29 0 34 -237 100 -356 101 -102 0 -102 1 -70
-186 37 -216 76 -377 137 -558 80 -236 185 -511 222 -579 19 -34 60 -110 92
-169 64 -119 70 -124 198 -149 85 -16 88 -14 142 124 22 56 44 102 49 102 5 0
25 -38 45 -85 54 -125 110 -155 206 -111 42 19 125 103 125 127 0 7 8 15 18
19 17 5 82 76 82 90 0 3 11 22 24 43 14 20 30 58 37 85 6 26 15 47 20 47 5 0
5 7 2 17 -4 10 -2 14 4 10 6 -4 13 0 17 8 3 8 1 15 -4 15 -5 0 7 16 27 35 20
19 33 35 28 35 -4 0 -3 6 2 13 6 6 13 24 17 40 3 15 11 27 17 27 6 0 8 4 5 9
-3 5 1 11 9 15 8 3 15 14 15 25 0 11 5 23 10 26 6 4 8 10 5 15 -3 5 2 13 12
18 10 6 17 22 18 38 0 19 7 32 23 40 13 6 19 13 12 16 -8 2 -7 12 4 32 8 16
12 35 9 42 -3 8 0 14 6 14 6 0 11 7 11 16 0 17 23 44 39 44 5 0 16 -6 23 -13
7 -6 38 -23 68 -36 88 -39 93 -48 102 -154 9 -104 11 -123 27 -188 6 -26 13
-73 16 -106 2 -32 9 -82 15 -111 5 -29 9 -56 8 -60 -2 -10 11 -57 33 -125 10
-31 19 -70 19 -85 0 -24 8 -32 45 -51 24 -12 53 -22 62 -22 281 5 285 6 285
77 1 172 -6 292 -18 350 -19 85 -20 100 -29 249 -8 137 -11 175 -16 192 -2 6
-1 11 4 12 4 0 22 7 40 14 33 14 71 23 147 33 25 3 65 10 90 16 111 24 106 25
114 -24 15 -85 22 -506 11 -560 -4 -14 -2 -29 3 -32 5 -3 8 -21 6 -41 -1 -19
2 -35 7 -35 4 0 6 -6 3 -14 -3 -8 -1 -23 5 -33 8 -14 10 -7 11 35 0 51 14 74
18 30 2 -31 49 -269 62 -317 9 -34 17 -41 62 -61 42 -18 63 -21 107 -16 76 9
191 70 191 102 0 3 9 18 19 33 38 53 53 139 66 390 3 52 9 111 14 132 5 22 6
39 1 39 -4 0 -4 22 1 49 4 27 5 104 2 172 -3 68 -5 131 -5 139 4 82 11 152 15
156 2 3 33 20 68 38 86 45 105 79 109 201 1 50 2 95 3 102 0 6 -8 32 -17 58
-18 46 -18 46 -43 30 -14 -9 -27 -14 -31 -11 -3 3 -6 49 -7 102 -1 87 1 99 20
118 26 25 47 114 39 164 -3 20 -17 50 -30 66 l-25 28 -102 -5 c-126 -7 -198
-20 -231 -42 -28 -19 -86 -101 -86 -122 0 -7 -7 -13 -15 -13 -8 0 -15 -9 -15
-19 0 -11 -5 -23 -10 -26 -6 -4 -8 -10 -6 -14 4 -6 -1 -32 -20 -106 -14 -56
-22 -126 -19 -183 4 -71 0 -76 -78 -87 -26 -4 -50 -11 -53 -16 -3 -5 -18 -9
-34 -9 -16 0 -39 -4 -52 -9 -24 -9 -235 -45 -320 -55 -54 -6 -54 -8 -38 75 6
30 13 79 15 109 3 30 8 80 12 110 3 30 6 58 5 63 -1 4 2 7 7 7 6 0 6 12 2 28
-4 15 -6 42 -4 60 1 17 -2 32 -8 32 -5 0 -9 6 -8 13 1 6 -3 25 -9 40 -7 16
-12 37 -12 47 0 31 -69 97 -134 130 -66 32 -130 47 -188 42z m949 -424 c-3 -8
-6 -5 -6 6 -1 11 2 17 5 13 3 -3 4 -12 1 -19z m-1117 -330 c0 -16 -3 -19 -11
-11 -6 6 -8 16 -5 22 11 17 16 13 16 -11z m12 -98 c4 -35 6 -66 4 -67 -9 -9
-110 -42 -115 -38 -2 3 1 5 8 5 9 0 9 5 1 20 -8 15 -8 20 1 20 7 0 5 8 -6 20
-10 11 -16 23 -12 26 5 6 33 -36 30 -46 -1 -3 7 -7 18 -7 24 -2 25 12 2 22
-16 6 -15 8 7 17 l25 10 -22 15 c-28 19 -31 38 -4 23 26 -14 31 -13 25 5 -8
21 3 48 19 43 7 -3 15 -32 19 -68z m23 -280 c3 -5 2 -10 -4 -10 -5 0 -13 5
-16 10 -3 6 -2 10 4 10 5 0 13 -4 16 -10z m892 -497 c-3 -10 -5 -4 -5 12 0 17
2 24 5 18 2 -7 2 -21 0 -30z m10 -90 c-3 -10 -5 -2 -5 17 0 19 2 27 5 18 2
-10 2 -26 0 -35z"/>
<path d="M8359 7405 c-8 -7 -86 -14 -236 -19 -62 -3 -132 -7 -155 -10 -24 -3
-88 -8 -143 -11 -55 -3 -147 -12 -205 -20 -58 -8 -126 -17 -151 -20 -55 -7
-128 -51 -135 -82 -4 -13 -10 -21 -14 -18 -4 3 -11 -7 -14 -23 -4 -15 -12 -45
-17 -66 l-11 -39 -20 34 c-44 72 -99 128 -136 139 -51 14 -140 13 -290 -4 -70
-8 -181 -20 -247 -26 -223 -21 -538 -95 -765 -180 -47 -17 -123 -45 -170 -62
-99 -35 -120 -51 -120 -89 0 -38 28 -51 165 -79 61 -12 129 -30 152 -40 46
-20 48 -25 57 -175 2 -38 13 -185 25 -325 11 -140 27 -347 36 -460 21 -272 43
-430 62 -452 13 -14 32 -18 94 -18 l78 0 25 55 c15 30 31 76 36 102 5 26 14
71 19 98 l10 50 -3 -52 c-4 -63 1 -73 37 -66 18 4 27 12 27 25 0 11 5 28 10
39 8 14 7 19 -1 19 -8 0 -9 4 0 13 6 8 8 17 4 20 -3 4 -1 7 5 7 8 0 8 8 0 30
-5 17 -8 39 -5 50 3 11 1 20 -5 20 -5 0 -6 9 -3 20 4 13 2 20 -7 20 -7 0 -2 7
10 16 13 9 21 22 18 30 -3 7 -1 16 3 18 5 3 8 28 7 56 -1 28 1 53 6 56 4 3 6
25 3 50 -4 26 -2 44 4 44 7 0 7 9 -1 25 -9 21 -8 29 8 47 17 19 17 21 2 15
-21 -7 -24 3 -6 21 9 9 9 12 -1 12 -8 0 -11 6 -7 15 3 8 0 15 -6 15 -7 0 -7 4
1 13 6 8 8 17 4 20 -3 4 -7 21 -8 38 -2 20 0 27 5 19 5 -8 8 5 8 33 0 29 -4
47 -11 47 -8 0 -9 3 -1 8 17 12 23 39 11 51 -6 6 -7 11 -1 11 5 0 2 5 -6 10
-12 8 -11 10 5 8 22 -3 25 1 25 32 0 14 -7 20 -22 21 -17 1 -19 2 -5 6 21 6
22 22 2 30 -14 5 -14 8 0 29 14 21 14 23 -1 17 -14 -5 -16 -2 -11 19 4 15 10
33 13 42 3 9 1 16 -5 16 -6 0 -11 7 -11 16 0 18 25 46 34 37 3 -4 6 0 6 7 0
11 3 11 12 2 15 -15 31 -16 22 0 -5 7 -3 8 7 2 19 -11 49 -16 49 -6 0 4 19 8
43 9 59 2 83 7 99 21 11 9 17 9 26 0 9 -9 12 -9 12 2 0 7 3 10 7 7 3 -4 14 0
24 9 9 8 27 17 40 18 43 6 84 19 92 30 6 8 10 7 14 -2 4 -10 10 -10 29 3 21
14 24 14 24 0 0 -8 4 -15 9 -15 5 0 7 10 5 23 -2 12 -1 16 2 9 5 -10 9 -10 20
-1 8 6 14 8 14 5 0 -4 7 0 16 8 8 9 20 14 25 11 5 -4 9 4 9 15 0 16 4 20 16
16 9 -4 22 -2 28 3 6 4 47 16 91 26 44 10 86 20 94 23 14 5 13 -41 -3 -200 -3
-20 -7 -94 -11 -164 -4 -69 -9 -136 -11 -148 -18 -77 3 -579 26 -631 12 -26
51 -190 49 -201 -1 -5 3 -22 10 -39 7 -16 15 -52 18 -80 3 -27 12 -62 19 -77
8 -15 11 -33 8 -41 -5 -14 8 -35 45 -74 9 -9 27 -13 48 -11 18 2 33 1 33 -3 0
-7 49 -24 62 -21 4 1 12 -8 19 -19 10 -19 17 -20 67 -15 57 7 184 32 212 43 8
4 17 7 20 7 3 1 15 7 28 14 12 7 22 11 22 8 0 -3 15 0 33 5 17 6 59 14 92 19
53 8 73 12 135 25 8 2 15 4 15 6 0 1 9 3 20 4 11 2 56 15 99 29 44 14 81 24
84 21 2 -2 23 6 46 17 22 12 45 21 51 19 5 -1 15 6 22 15 8 11 13 13 13 5 0
-27 160 23 204 64 13 12 38 32 55 44 17 12 31 28 31 34 0 7 -27 40 -61 74
l-61 62 -62 -4 c-106 -7 -131 -12 -276 -55 -89 -26 -269 -68 -410 -96 -14 -3
-32 -7 -40 -9 -10 -3 -24 14 -42 56 -16 32 -28 66 -28 73 0 8 -7 41 -15 75 -9
33 -17 75 -19 93 -2 18 -8 52 -15 74 -10 37 -15 79 -24 214 l-2 35 78 6 c42 4
83 11 90 17 6 6 30 12 52 15 52 6 85 17 85 28 0 5 3 8 8 7 7 -1 27 5 67 22 53
23 140 37 253 43 6 0 12 4 12 8 0 4 12 10 27 14 25 6 52 30 53 47 0 12 -62 38
-92 38 -15 0 -28 5 -28 12 0 6 -3 9 -6 5 -7 -6 -64 19 -64 29 0 10 85 -8 122
-27 36 -18 38 -18 38 -2 0 36 -134 76 -167 50 -7 -5 -13 -6 -13 -1 0 5 -4 3
-9 -5 -6 -9 -31 -14 -72 -16 -35 -1 -73 -6 -84 -10 l-20 -8 20 17 c19 17 18
17 -25 12 -25 -3 -67 -10 -95 -15 -147 -27 -194 -34 -209 -28 -21 8 -21 49 0
175 9 53 16 109 15 125 -1 15 3 56 9 90 6 34 12 94 14 132 2 39 5 70 6 70 1 0
4 23 6 50 9 86 23 93 194 96 80 2 154 7 165 11 11 4 76 12 145 17 144 11 260
36 260 57 0 8 -4 14 -10 14 -5 0 -23 14 -40 31 -16 18 -30 28 -30 23 0 -5 -4
-4 -8 1 -4 6 -31 17 -61 24 -42 11 -55 11 -61 1 -6 -9 -9 -9 -11 -1 -3 7 -7
10 -10 6z m106 -35 c3 -5 2 -10 -4 -10 -5 0 -13 5 -16 10 -3 6 -2 10 4 10 5 0
13 -4 16 -10z m-186 -1934 c-2 -2 -18 -7 -34 -10 l-30 -6 30 14 c26 12 46 14
34 2z m-469 -116 c0 -5 -8 -10 -17 -10 -15 0 -16 2 -3 10 19 12 20 12 20 0z
m-56 -9 c3 -5 -5 -8 -19 -8 -14 0 -22 3 -19 8 3 5 11 9 19 9 8 0 16 -4 19 -9z
m-54 -9 c0 -4 -15 -9 -32 -10 -25 -2 -29 0 -18 8 18 12 50 13 50 2z m-70 -16
c0 -8 -51 -13 -56 -5 -3 5 9 9 25 9 17 0 31 -2 31 -4z"/>
<path d="M4345 4752 c-100 -92 -105 -95 -123 -81 -16 13 -16 13 1 -7 15 -18
16 -34 11 -125 -5 -79 -3 -119 9 -165 9 -34 19 -126 22 -205 4 -79 9 -147 11
-150 2 -4 7 -78 10 -165 3 -88 7 -170 10 -184 2 -14 4 -72 3 -130 0 -58 0
-114 0 -124 0 -11 6 -23 13 -27 9 -6 9 -9 1 -9 -12 0 -14 -70 -2 -70 4 0 5
-57 3 -126 -1 -70 2 -150 7 -178 6 -28 12 -62 15 -76 3 -14 9 -50 15 -80 6
-30 12 -62 13 -69 2 -8 8 -17 14 -19 7 -2 11 2 9 10 -2 7 1 3 7 -10 6 -12 15
-21 22 -18 6 2 17 -6 24 -20 11 -19 21 -24 55 -24 33 0 47 6 70 30 18 19 39
30 56 30 21 0 26 4 23 18 -3 11 3 21 18 27 13 6 22 17 20 27 -1 9 7 23 18 31
11 7 18 16 15 19 -3 3 1 11 10 18 8 7 15 19 15 26 0 8 4 14 10 14 5 0 7 7 4
15 -4 8 -1 15 6 15 7 0 9 8 5 20 -4 13 -1 22 8 26 9 3 13 13 9 26 -4 18 -2 20
17 15 22 -5 23 -3 17 31 -4 20 -8 67 -10 104 -2 52 0 65 10 61 9 -3 14 2 15
13 3 46 2 83 -6 129 -4 28 -10 156 -12 285 -3 209 -8 335 -13 335 -3 0 -10 40
-14 85 -3 25 -8 56 -11 70 -3 14 -12 54 -18 90 -7 36 -16 71 -20 78 -5 7 -11
36 -13 64 -3 29 -9 57 -15 64 -5 6 -11 33 -14 60 -2 27 -7 72 -11 100 -4 33
-3 54 4 58 17 10 3 36 -19 36 -10 0 -29 10 -41 23 -21 20 -34 22 -143 25 -105
2 -123 0 -140 -16z m70 -22 c-3 -5 -12 -10 -18 -10 -7 0 -6 4 3 10 19 12 23
12 15 0z m352 -692 c-3 -7 -5 -2 -5 12 0 14 2 19 5 13 2 -7 2 -19 0 -25z m30
-260 c-3 -8 -6 -5 -6 6 -1 11 2 17 5 13 3 -3 4 -12 1 -19z"/>
<path d="M5605 4763 c-67 -15 -212 -97 -302 -170 -94 -77 -183 -236 -217 -388
-23 -103 -46 -218 -48 -235 0 -8 -4 -17 -7 -20 -20 -16 -55 -171 -67 -294 -2
-21 -8 -44 -14 -51 -8 -9 -7 -14 1 -17 8 -3 9 -9 4 -18 -4 -7 -9 -73 -11 -146
-1 -73 -7 -141 -13 -151 -6 -12 -6 -25 0 -34 14 -23 11 -76 -6 -83 -14 -5 -14
-9 -2 -33 9 -17 13 -54 12 -95 -2 -38 1 -68 6 -68 5 0 9 -17 9 -39 0 -21 7
-56 16 -77 9 -22 18 -52 21 -69 5 -36 55 -138 77 -161 16 -15 56 -12 56 6 0 4
47 5 103 3 57 -3 111 -2 119 3 45 26 124 166 143 253 4 17 11 31 16 31 5 0 8
3 7 8 -4 14 14 52 24 52 6 0 8 3 5 6 -3 4 -2 15 3 25 7 12 6 19 -3 22 -9 3 -9
7 1 20 8 9 11 21 7 27 -10 16 -12 100 -2 100 4 0 5 12 3 26 -4 22 -3 24 10 13
13 -11 14 -9 3 14 -7 15 -16 27 -21 27 -6 0 -8 6 -5 13 2 6 0 20 -4 29 -7 13
-4 20 13 29 13 6 32 19 43 29 33 29 240 79 328 80 41 0 59 -4 63 -14 3 -8 12
-12 20 -9 10 3 12 0 9 -10 -4 -8 1 -17 10 -20 8 -4 20 -18 25 -32 5 -14 17
-25 27 -25 10 -1 36 -23 58 -51 22 -27 48 -59 58 -71 37 -46 107 -206 107
-247 0 -23 3 -41 8 -41 4 0 8 -21 9 -47 1 -26 12 -66 23 -89 20 -38 27 -43 67
-49 40 -6 49 -3 82 23 76 61 100 120 108 259 4 75 1 104 -15 160 -54 176 -250
377 -479 492 -75 37 -80 57 -28 107 19 18 35 37 35 42 0 6 6 12 14 15 8 3 22
21 31 40 9 19 24 43 33 53 10 11 29 45 42 76 14 32 31 58 37 58 23 0 83 75
104 130 16 42 19 67 14 105 -17 134 -42 167 -212 282 -63 43 -141 95 -171 116
-95 64 -284 103 -387 80z m353 -313 c28 -97 -10 -196 -143 -364 -48 -59 -138
-161 -201 -225 l-115 -116 5 45 c3 25 6 53 7 62 0 9 11 27 25 41 13 13 25 35
27 47 2 13 9 26 14 27 6 2 9 13 6 23 -3 12 1 22 11 26 9 3 13 10 10 15 -3 5 3
9 13 9 13 0 15 2 5 9 -17 11 -12 31 14 56 12 11 31 38 43 60 12 22 21 36 21
32 0 -4 6 -2 13 5 8 7 13 22 11 33 -1 13 4 22 12 22 7 0 11 -4 8 -9 -3 -4 -2
-14 2 -20 6 -9 10 -5 14 12 4 14 2 31 -3 38 -7 9 -5 11 8 6 15 -6 17 -3 13 14
-5 18 -2 22 15 22 17 0 19 2 8 9 -12 8 -12 14 -4 33 7 13 12 17 12 11 1 -7 6
-13 12 -13 6 0 9 8 7 18 -7 24 15 44 32 29 10 -9 11 -7 6 9 -8 26 38 87 62 82
9 -2 22 -23 30 -48z m-136 -11 c-18 -17 -35 -29 -38 -26 -5 5 53 57 64 57 4 0
-8 -14 -26 -31z m-52 -59 c0 -5 -5 -10 -11 -10 -5 0 -7 5 -4 10 3 6 8 10 11
10 2 0 4 -4 4 -10z m-103 -125 c0 -8 -7 -15 -15 -15 -12 0 -12 3 -2 15 7 8 13
15 15 15 1 0 2 -7 2 -15z m-17 -30 c0 -2 -10 -10 -22 -16 -21 -11 -22 -11 -9
4 13 16 31 23 31 12z m739 -1315 c0 -23 -1 -23 -9 -5 -5 11 -9 29 -9 40 -1 17
1 17 9 5 5 -8 9 -26 9 -40z m-1296 -169 c-8 -11 -16 14 -29 86 -21 119 -15
130 10 18 12 -55 21 -102 19 -104z"/>
<path d="M6674 4737 c-22 -18 -47 -42 -58 -55 -13 -16 -24 -21 -40 -16 -21 7
-21 6 -3 -14 16 -18 18 -30 11 -89 -10 -88 -7 -153 10 -217 8 -28 17 -114 21
-191 3 -77 8 -165 10 -195 13 -151 16 -209 20 -379 3 -134 8 -187 17 -193 9
-5 10 -8 1 -8 -12 0 -14 -70 -2 -70 3 0 4 -55 2 -122 -2 -83 2 -150 13 -212 9
-50 18 -102 20 -116 9 -55 24 -100 35 -100 5 0 7 6 6 13 -2 6 1 2 7 -11 6 -12
15 -21 22 -18 6 2 16 -6 23 -20 17 -38 78 -34 130 11 24 19 48 32 56 28 10 -3
15 2 15 17 0 11 4 19 9 16 10 -7 36 21 36 40 0 7 10 24 23 39 27 31 45 73 36
86 -3 5 2 9 11 9 11 0 15 5 11 15 -3 9 -2 23 3 33 5 9 12 25 15 36 5 15 9 16
21 6 13 -11 15 -8 15 18 0 17 -7 37 -15 46 -18 18 -20 30 -2 20 8 -5 8 -2 -2
9 -7 9 -9 17 -3 17 5 0 8 15 5 34 -3 25 1 40 14 53 17 17 18 28 11 94 -19 187
-26 339 -14 339 8 0 2 171 -8 230 -5 27 -19 150 -22 190 -1 14 -10 59 -20 100
-10 41 -17 85 -16 98 2 12 -2 22 -7 22 -5 0 -12 19 -16 43 -3 23 -13 70 -21
105 -9 35 -17 101 -18 146 -3 84 -10 111 -26 101 -5 -3 -20 5 -32 17 -21 21
-32 23 -144 25 l-121 1 -39 -31z m443 -699 c-3 -7 -5 -2 -5 12 0 14 2 19 5 13
2 -7 2 -19 0 -25z m30 -260 c-3 -8 -6 -5 -6 6 -1 11 2 17 5 13 3 -3 4 -12 1
-19z m-10 -290 c-3 -8 -6 -5 -6 6 -1 11 2 17 5 13 3 -3 4 -12 1 -19z"/>
<path d="M1735 4686 c-27 -7 -79 -24 -115 -38 -36 -15 -81 -29 -100 -33 -19
-4 -54 -18 -77 -31 -23 -13 -49 -24 -57 -24 -9 0 -16 -6 -16 -14 0 -8 -10 -18
-22 -21 -11 -4 -31 -18 -44 -32 -14 -15 -35 -25 -57 -26 -19 -1 -33 -7 -30
-12 6 -18 -37 -56 -56 -50 -12 4 -24 -2 -33 -17 -9 -13 -32 -40 -53 -61 -26
-26 -34 -42 -27 -49 7 -7 4 -16 -9 -29 -19 -19 -23 -54 -10 -99 4 -14 2 -38
-3 -53 -9 -22 -8 -30 4 -37 8 -5 11 -10 6 -10 -5 0 -3 -7 4 -15 6 -8 9 -19 5
-24 -3 -6 -1 -19 5 -28 10 -16 11 -16 5 2 -4 14 2 10 19 -11 54 -67 222 -190
361 -265 44 -23 98 -55 120 -69 54 -37 142 -133 127 -138 -8 -2 -8 -8 3 -19
18 -17 11 -35 -10 -27 -8 4 -13 10 -10 14 6 10 -21 21 -29 13 -3 -4 -1 -12 5
-20 9 -9 8 -13 0 -13 -6 0 -11 -8 -11 -18 0 -10 -7 -28 -16 -40 -8 -12 -12
-28 -7 -34 14 -24 10 -112 -8 -144 -9 -17 -13 -37 -9 -43 13 -22 -1 -61 -22
-61 -13 0 -18 -5 -15 -14 12 -32 -15 -84 -77 -149 -36 -37 -70 -67 -76 -67 -6
0 -8 -4 -5 -10 3 -5 2 -10 -4 -10 -5 0 -37 -22 -70 -50 -33 -27 -64 -50 -69
-50 -10 0 -32 -44 -32 -65 0 -7 12 -23 26 -34 23 -18 36 -20 115 -15 189 10
242 31 367 143 109 97 155 158 192 254 15 39 55 124 89 188 72 137 78 181 35
267 -34 68 -96 122 -269 231 -117 74 -142 94 -152 122 -18 50 -15 94 7 134 11
20 20 42 20 50 0 14 12 19 32 16 4 0 11 11 14 26 8 28 80 102 101 103 6 0 19
9 27 21 8 12 20 19 28 17 7 -3 23 8 35 24 12 18 24 25 28 19 4 -7 17 2 33 21
32 40 43 48 54 42 4 -3 8 0 8 5 0 6 -4 11 -10 11 -5 0 -10 7 -10 16 0 12 7 14
30 9 20 -5 30 -3 30 6 0 22 91 1 172 -38 64 -32 79 -44 93 -77 15 -32 16 -43
6 -59 -11 -16 -9 -22 9 -39 12 -11 20 -25 17 -32 -4 -13 28 -47 37 -38 3 3 6
-2 6 -11 0 -9 6 -17 14 -17 8 0 16 -7 20 -15 3 -8 11 -15 19 -15 7 0 23 -10
35 -23 17 -18 23 -38 26 -93 2 -38 0 -73 -4 -79 -13 -17 -20 -84 -10 -90 6 -4
7 -13 1 -23 -5 -9 -8 -38 -8 -65 0 -26 -3 -50 -6 -53 -3 -3 -1 -17 6 -31 8
-18 8 -29 -1 -44 -7 -10 -8 -19 -4 -19 4 0 7 -13 6 -30 -1 -16 1 -30 6 -30 4
0 5 -12 3 -27 -2 -16 -6 -68 -9 -118 -3 -49 -9 -92 -13 -95 -11 -6 -9 -60 1
-60 6 0 5 -86 -7 -362 -3 -71 -3 -128 1 -128 19 0 125 66 138 85 20 30 46 145
46 203 0 26 5 65 11 87 6 22 13 52 16 68 3 15 10 27 15 27 5 0 6 6 1 13 -11
18 -10 30 4 45 9 9 10 19 4 30 -13 25 -14 34 -2 41 6 4 12 23 13 43 2 20 6 34
10 32 4 -2 9 5 13 16 3 11 10 20 15 20 5 0 8 9 7 20 -1 11 -5 20 -10 20 -4 0
-6 4 -2 9 3 6 14 8 25 6 11 -2 20 1 20 6 0 6 8 9 18 7 11 -2 26 3 34 9 11 10
23 10 47 2 23 -8 35 -8 45 0 8 7 25 14 38 16 12 1 43 6 67 9 28 4 56 17 78 36
19 17 40 30 48 30 8 0 15 5 15 10 0 6 14 10 30 10 17 0 30 5 30 11 0 5 5 7 10
4 6 -3 10 -2 10 4 0 5 15 13 33 16 17 4 44 16 60 27 15 11 27 15 27 9 0 -5 13
4 29 20 16 16 36 29 45 29 8 0 17 9 21 19 3 10 18 22 32 26 15 3 38 15 51 26
14 10 30 19 37 19 7 0 18 7 25 15 7 8 16 12 21 9 5 -3 6 2 3 10 -7 19 22 22
30 4 3 -9 8 -8 16 5 6 9 17 17 25 17 8 0 20 9 27 20 7 11 21 20 30 20 10 0 18
4 18 9 0 5 9 7 20 4 11 -3 20 0 20 6 0 6 7 11 15 11 8 0 15 5 15 10 0 6 6 10
13 8 6 -1 23 9 38 22 50 50 80 71 90 64 7 -4 9 4 7 22 -2 23 1 29 15 28 9 -1
17 4 17 11 0 6 10 17 23 24 114 61 133 86 106 140 -31 62 -230 269 -294 304
-95 54 -337 123 -515 148 -93 13 -360 7 -445 -11 -125 -25 -318 -93 -382 -133
-24 -15 -54 -27 -68 -27 -14 0 -25 -4 -25 -8 0 -5 -21 -13 -46 -19 l-46 -11
-139 104 c-76 57 -150 109 -164 114 -37 14 -249 11 -310 -4z m-238 -126 c-1
-11 -5 -20 -9 -20 -10 0 -10 4 -2 24 8 22 13 20 11 -4z m-30 -30 c-2 -25 -27
-36 -27 -11 0 10 3 21 7 24 12 13 22 7 20 -13z m-103 -70 c-6 -6 -10 -3 -10
10 0 13 4 16 10 10 7 -7 7 -13 0 -20z m2240 -174 c-4 -10 3 -13 26 -10 19 2
33 -1 36 -10 7 -19 54 -8 54 13 0 14 2 14 10 1 8 -12 12 -13 19 -2 6 11 11 11
24 -2 9 -9 18 -12 21 -7 8 13 56 1 56 -15 0 -18 -158 -142 -233 -183 -34 -18
-64 -37 -67 -42 -9 -13 -466 -239 -484 -239 -15 0 -115 -49 -126 -61 -3 -3
-23 -12 -45 -19 -22 -7 -46 -17 -53 -23 -20 -16 -10 37 12 62 9 10 18 25 20
33 1 7 6 20 11 28 25 38 34 62 28 75 -3 8 -1 15 4 15 5 0 10 17 11 37 2 21 7
40 11 43 7 5 20 47 23 78 1 6 7 12 15 12 16 0 17 42 1 58 -9 9 -9 12 2 12 10
0 8 4 -4 13 -17 13 -18 14 -2 20 10 4 14 11 11 17 -14 22 59 65 90 54 8 -4 15
-1 15 6 0 6 5 8 11 4 15 -9 79 -13 79 -5 0 4 27 6 60 5 36 0 60 3 60 10 0 7 4
6 11 -1 8 -8 18 -7 37 3 20 10 28 11 34 1 6 -9 8 -9 8 2 0 10 4 11 13 3 8 -7
17 -6 30 3 13 9 39 11 86 8 44 -3 71 -1 75 6 10 16 16 14 10 -3z m-1866 -54
c-10 -2 -18 -8 -18 -13 0 -5 -7 -9 -15 -9 -8 0 -15 -5 -15 -12 0 -6 -3 -8 -7
-4 -10 10 50 56 62 48 5 -4 2 -8 -7 -10z m-62 -807 c13 -13 13 -15 1 -15 -8 0
-17 7 -21 15 -3 8 -3 15 0 15 3 0 12 -7 20 -15z"/>
<path d="M8590 4630 c-36 -4 -121 -13 -190 -19 -398 -36 -668 -102 -1108 -273
-63 -25 -89 -56 -72 -87 16 -31 37 -39 169 -65 67 -13 135 -33 153 -43 30 -17
34 -25 40 -79 11 -109 29 -316 58 -709 32 -418 53 -603 73 -621 7 -6 46 -14
87 -17 68 -5 76 -3 91 17 30 42 58 124 68 200 5 43 12 81 16 84 4 4 5 -21 1
-55 -7 -61 -6 -63 16 -63 13 0 28 4 35 8 10 6 24 78 24 122 1 50 -7 129 -13
135 -3 4 2 15 13 26 14 14 19 34 20 72 0 28 3 61 5 72 3 11 5 52 6 90 0 39 5
76 10 83 6 7 7 12 1 12 -13 0 -18 72 -11 170 2 25 0 53 -5 63 -4 9 -4 17 1 17
17 0 21 41 5 47 -12 5 -8 9 13 19 18 8 23 13 12 13 -9 1 -20 6 -24 13 -5 7 -2
9 9 5 11 -4 15 0 14 14 -1 12 -9 19 -22 20 -18 0 -19 1 -2 8 17 6 17 8 3 20
-12 10 -13 18 -5 32 5 10 6 19 2 19 -15 0 -11 113 3 128 8 7 14 10 14 5 0 -4
5 -1 10 7 5 8 10 10 10 4 0 -7 16 -14 35 -16 19 -2 35 -1 35 3 0 11 50 17 56
7 3 -4 10 -6 15 -2 5 3 22 8 36 10 15 3 31 11 35 17 6 9 12 9 29 -1 11 -8 18
-9 14 -3 -3 6 1 11 9 11 8 0 22 7 30 16 9 9 29 17 44 18 43 3 82 17 82 30 0 8
3 7 8 -1 6 -10 14 -9 35 2 15 8 26 11 23 7 -3 -5 -1 -14 3 -21 6 -9 14 -6 30
15 11 14 21 24 21 20 0 -4 7 0 16 8 8 9 20 13 25 10 6 -3 9 2 7 12 -2 12 2 18
11 16 8 -2 21 0 30 4 9 4 23 8 31 10 8 1 51 11 95 22 79 21 115 45 115 79 0
39 -111 196 -155 220 -30 16 -164 23 -245 13z"/>
</g>
</svg>
